<mxfile host="app.diagrams.net" agent="Mozilla/5.0 (Macintosh; Intel Mac OS X 10_15_7) AppleWebKit/537.36 (KHTML, like Gecko) Chrome/129.0.0.0 Safari/537.36 Edg/129.0.0.0" version="24.7.17">
  <diagram name="Page-1" id="Id1ZDLKK5bzviWhN72XD">
    <mxGraphModel dx="1940" dy="754" grid="1" gridSize="10" guides="1" tooltips="1" connect="1" arrows="1" fold="1" page="1" pageScale="1" pageWidth="827" pageHeight="1169" math="0" shadow="0">
      <root>
        <mxCell id="0" />
        <mxCell id="1" parent="0" />
        <mxCell id="mrTYCghEalDdfHwuGX9a-3" value="" style="edgeStyle=orthogonalEdgeStyle;rounded=0;orthogonalLoop=1;jettySize=auto;html=1;" edge="1" parent="1" source="mrTYCghEalDdfHwuGX9a-1" target="mrTYCghEalDdfHwuGX9a-2">
          <mxGeometry relative="1" as="geometry" />
        </mxCell>
        <mxCell id="mrTYCghEalDdfHwuGX9a-1" value="Login" style="ellipse;whiteSpace=wrap;html=1;" vertex="1" parent="1">
          <mxGeometry x="210" y="100" width="120" height="80" as="geometry" />
        </mxCell>
        <mxCell id="mrTYCghEalDdfHwuGX9a-5" value="" style="edgeStyle=orthogonalEdgeStyle;rounded=0;orthogonalLoop=1;jettySize=auto;html=1;entryX=0.5;entryY=0;entryDx=0;entryDy=0;entryPerimeter=0;" edge="1" parent="1" source="mrTYCghEalDdfHwuGX9a-2" target="mrTYCghEalDdfHwuGX9a-7">
          <mxGeometry relative="1" as="geometry">
            <mxPoint x="270" y="475" as="targetPoint" />
          </mxGeometry>
        </mxCell>
        <mxCell id="mrTYCghEalDdfHwuGX9a-8" value="Y" style="edgeLabel;html=1;align=center;verticalAlign=middle;resizable=0;points=[];" vertex="1" connectable="0" parent="mrTYCghEalDdfHwuGX9a-5">
          <mxGeometry x="-0.2222" y="1" relative="1" as="geometry">
            <mxPoint as="offset" />
          </mxGeometry>
        </mxCell>
        <mxCell id="mrTYCghEalDdfHwuGX9a-17" value="N" style="edgeStyle=orthogonalEdgeStyle;rounded=0;orthogonalLoop=1;jettySize=auto;html=1;" edge="1" parent="1" source="mrTYCghEalDdfHwuGX9a-2" target="mrTYCghEalDdfHwuGX9a-16">
          <mxGeometry relative="1" as="geometry" />
        </mxCell>
        <mxCell id="mrTYCghEalDdfHwuGX9a-2" value="preferred language set in LocalStorage?" style="rhombus;whiteSpace=wrap;html=1;" vertex="1" parent="1">
          <mxGeometry x="170" y="260" width="200" height="110" as="geometry" />
        </mxCell>
        <mxCell id="mrTYCghEalDdfHwuGX9a-10" value="" style="edgeStyle=orthogonalEdgeStyle;rounded=0;orthogonalLoop=1;jettySize=auto;html=1;" edge="1" parent="1" source="mrTYCghEalDdfHwuGX9a-7" target="mrTYCghEalDdfHwuGX9a-9">
          <mxGeometry relative="1" as="geometry" />
        </mxCell>
        <mxCell id="mrTYCghEalDdfHwuGX9a-7" value="Set Language Cookie" style="shape=cylinder3;whiteSpace=wrap;html=1;boundedLbl=1;backgroundOutline=1;size=15;fillColor=#e1d5e7;strokeColor=#9673a6;" vertex="1" parent="1">
          <mxGeometry x="225" y="500" width="90" height="100" as="geometry" />
        </mxCell>
        <mxCell id="mrTYCghEalDdfHwuGX9a-12" value="" style="edgeStyle=orthogonalEdgeStyle;rounded=0;orthogonalLoop=1;jettySize=auto;html=1;" edge="1" parent="1" source="mrTYCghEalDdfHwuGX9a-9" target="mrTYCghEalDdfHwuGX9a-11">
          <mxGeometry relative="1" as="geometry" />
        </mxCell>
        <mxCell id="mrTYCghEalDdfHwuGX9a-9" value="request translation" style="whiteSpace=wrap;html=1;" vertex="1" parent="1">
          <mxGeometry x="210" y="677.5" width="120" height="60" as="geometry" />
        </mxCell>
        <mxCell id="mrTYCghEalDdfHwuGX9a-14" value="" style="edgeStyle=orthogonalEdgeStyle;rounded=0;orthogonalLoop=1;jettySize=auto;html=1;" edge="1" parent="1" source="mrTYCghEalDdfHwuGX9a-11" target="mrTYCghEalDdfHwuGX9a-13">
          <mxGeometry relative="1" as="geometry" />
        </mxCell>
        <mxCell id="mrTYCghEalDdfHwuGX9a-15" value="Y" style="edgeLabel;html=1;align=center;verticalAlign=middle;resizable=0;points=[];" vertex="1" connectable="0" parent="mrTYCghEalDdfHwuGX9a-14">
          <mxGeometry x="0.0222" y="1" relative="1" as="geometry">
            <mxPoint as="offset" />
          </mxGeometry>
        </mxCell>
        <mxCell id="mrTYCghEalDdfHwuGX9a-55" style="edgeStyle=orthogonalEdgeStyle;rounded=0;orthogonalLoop=1;jettySize=auto;html=1;entryX=0;entryY=0.5;entryDx=0;entryDy=0;" edge="1" parent="1" source="mrTYCghEalDdfHwuGX9a-11" target="mrTYCghEalDdfHwuGX9a-23">
          <mxGeometry relative="1" as="geometry" />
        </mxCell>
        <mxCell id="mrTYCghEalDdfHwuGX9a-56" value="N" style="edgeLabel;html=1;align=center;verticalAlign=middle;resizable=0;points=[];" vertex="1" connectable="0" parent="mrTYCghEalDdfHwuGX9a-55">
          <mxGeometry x="-0.2781" y="3" relative="1" as="geometry">
            <mxPoint as="offset" />
          </mxGeometry>
        </mxCell>
        <mxCell id="mrTYCghEalDdfHwuGX9a-11" value="translations found?" style="rhombus;whiteSpace=wrap;html=1;fillColor=#f8cecc;strokeColor=#b85450;" vertex="1" parent="1">
          <mxGeometry x="200" y="800" width="140" height="80" as="geometry" />
        </mxCell>
        <mxCell id="mrTYCghEalDdfHwuGX9a-13" value="Load translations" style="whiteSpace=wrap;html=1;" vertex="1" parent="1">
          <mxGeometry x="210" y="990" width="120" height="60" as="geometry" />
        </mxCell>
        <mxCell id="mrTYCghEalDdfHwuGX9a-19" value="" style="edgeStyle=orthogonalEdgeStyle;rounded=0;orthogonalLoop=1;jettySize=auto;html=1;" edge="1" parent="1" source="mrTYCghEalDdfHwuGX9a-16" target="mrTYCghEalDdfHwuGX9a-18">
          <mxGeometry relative="1" as="geometry" />
        </mxCell>
        <mxCell id="mrTYCghEalDdfHwuGX9a-16" value="Check supported languages and preferred language" style="whiteSpace=wrap;html=1;" vertex="1" parent="1">
          <mxGeometry x="490" y="285" width="120" height="60" as="geometry" />
        </mxCell>
        <mxCell id="mrTYCghEalDdfHwuGX9a-21" value="" style="edgeStyle=orthogonalEdgeStyle;rounded=0;orthogonalLoop=1;jettySize=auto;html=1;" edge="1" parent="1" source="mrTYCghEalDdfHwuGX9a-18" target="mrTYCghEalDdfHwuGX9a-20">
          <mxGeometry relative="1" as="geometry" />
        </mxCell>
        <mxCell id="mrTYCghEalDdfHwuGX9a-22" value="Y" style="edgeLabel;html=1;align=center;verticalAlign=middle;resizable=0;points=[];" vertex="1" connectable="0" parent="mrTYCghEalDdfHwuGX9a-21">
          <mxGeometry x="-0.0783" y="2" relative="1" as="geometry">
            <mxPoint as="offset" />
          </mxGeometry>
        </mxCell>
        <mxCell id="mrTYCghEalDdfHwuGX9a-61" value="N" style="edgeStyle=orthogonalEdgeStyle;rounded=0;orthogonalLoop=1;jettySize=auto;html=1;" edge="1" parent="1" source="mrTYCghEalDdfHwuGX9a-18" target="mrTYCghEalDdfHwuGX9a-60">
          <mxGeometry relative="1" as="geometry" />
        </mxCell>
        <mxCell id="mrTYCghEalDdfHwuGX9a-18" value="Any overlap between app&amp;nbsp;&lt;div&gt;and browser&amp;nbsp;&lt;/div&gt;&lt;div&gt;supported languages other than English?&lt;/div&gt;" style="rhombus;whiteSpace=wrap;html=1;fillColor=#f8cecc;strokeColor=#b85450;" vertex="1" parent="1">
          <mxGeometry x="445" y="420" width="210" height="130" as="geometry" />
        </mxCell>
        <mxCell id="mrTYCghEalDdfHwuGX9a-24" value="" style="edgeStyle=orthogonalEdgeStyle;rounded=0;orthogonalLoop=1;jettySize=auto;html=1;" edge="1" parent="1" source="mrTYCghEalDdfHwuGX9a-20" target="mrTYCghEalDdfHwuGX9a-23">
          <mxGeometry relative="1" as="geometry" />
        </mxCell>
        <mxCell id="mrTYCghEalDdfHwuGX9a-20" value="Show the overlapping options in dropdown" style="whiteSpace=wrap;html=1;" vertex="1" parent="1">
          <mxGeometry x="490" y="615" width="120" height="55" as="geometry" />
        </mxCell>
        <mxCell id="mrTYCghEalDdfHwuGX9a-49" style="edgeStyle=orthogonalEdgeStyle;rounded=0;orthogonalLoop=1;jettySize=auto;html=1;entryX=0;entryY=0.5;entryDx=0;entryDy=0;" edge="1" parent="1" source="mrTYCghEalDdfHwuGX9a-23" target="mrTYCghEalDdfHwuGX9a-44">
          <mxGeometry relative="1" as="geometry" />
        </mxCell>
        <mxCell id="mrTYCghEalDdfHwuGX9a-57" value="Y" style="edgeLabel;html=1;align=center;verticalAlign=middle;resizable=0;points=[];" vertex="1" connectable="0" parent="mrTYCghEalDdfHwuGX9a-49">
          <mxGeometry x="-0.226" y="-1" relative="1" as="geometry">
            <mxPoint as="offset" />
          </mxGeometry>
        </mxCell>
        <mxCell id="mrTYCghEalDdfHwuGX9a-23" value="browser preferred&amp;nbsp;&lt;div&gt;language is available?&lt;/div&gt;" style="rhombus;whiteSpace=wrap;html=1;fillColor=#f8cecc;strokeColor=#b85450;" vertex="1" parent="1">
          <mxGeometry x="465" y="793.75" width="170" height="92.5" as="geometry" />
        </mxCell>
        <mxCell id="mrTYCghEalDdfHwuGX9a-32" style="edgeStyle=orthogonalEdgeStyle;rounded=0;orthogonalLoop=1;jettySize=auto;html=1;entryX=0.5;entryY=0;entryDx=0;entryDy=0;" edge="1" parent="1" source="mrTYCghEalDdfHwuGX9a-23" target="mrTYCghEalDdfHwuGX9a-37">
          <mxGeometry relative="1" as="geometry">
            <mxPoint x="550" y="920" as="targetPoint" />
          </mxGeometry>
        </mxCell>
        <mxCell id="mrTYCghEalDdfHwuGX9a-33" value="N" style="edgeLabel;html=1;align=center;verticalAlign=middle;resizable=0;points=[];" vertex="1" connectable="0" parent="mrTYCghEalDdfHwuGX9a-32">
          <mxGeometry x="-0.2" y="1" relative="1" as="geometry">
            <mxPoint as="offset" />
          </mxGeometry>
        </mxCell>
        <mxCell id="mrTYCghEalDdfHwuGX9a-35" value="- Local Storage/Cookie/header&lt;br&gt;- Browser preferred language&lt;br&gt;&lt;div&gt;- Default fallback for that region (if browser has language pack)&lt;br&gt;- English&lt;/div&gt;" style="rounded=0;whiteSpace=wrap;html=1;" vertex="1" parent="1">
          <mxGeometry x="-170" y="1169" width="180" height="81" as="geometry" />
        </mxCell>
        <mxCell id="mrTYCghEalDdfHwuGX9a-36" value="Precedence" style="text;html=1;align=center;verticalAlign=middle;resizable=0;points=[];autosize=1;strokeColor=none;fillColor=none;" vertex="1" parent="1">
          <mxGeometry x="-250" y="1138" width="90" height="30" as="geometry" />
        </mxCell>
        <mxCell id="mrTYCghEalDdfHwuGX9a-37" value="Load default preferred language for that region or fallback to English" style="rounded=0;whiteSpace=wrap;html=1;" vertex="1" parent="1">
          <mxGeometry x="490" y="930" width="120" height="60" as="geometry" />
        </mxCell>
        <mxCell id="mrTYCghEalDdfHwuGX9a-43" value="" style="edgeStyle=orthogonalEdgeStyle;rounded=0;orthogonalLoop=1;jettySize=auto;html=1;" edge="1" parent="1" source="mrTYCghEalDdfHwuGX9a-44" target="mrTYCghEalDdfHwuGX9a-47">
          <mxGeometry relative="1" as="geometry" />
        </mxCell>
        <mxCell id="mrTYCghEalDdfHwuGX9a-44" value="request translation" style="whiteSpace=wrap;html=1;" vertex="1" parent="1">
          <mxGeometry x="730" y="810" width="120" height="60" as="geometry" />
        </mxCell>
        <mxCell id="mrTYCghEalDdfHwuGX9a-45" value="" style="edgeStyle=orthogonalEdgeStyle;rounded=0;orthogonalLoop=1;jettySize=auto;html=1;" edge="1" parent="1" source="mrTYCghEalDdfHwuGX9a-47" target="mrTYCghEalDdfHwuGX9a-48">
          <mxGeometry relative="1" as="geometry" />
        </mxCell>
        <mxCell id="mrTYCghEalDdfHwuGX9a-46" value="Y" style="edgeLabel;html=1;align=center;verticalAlign=middle;resizable=0;points=[];" vertex="1" connectable="0" parent="mrTYCghEalDdfHwuGX9a-45">
          <mxGeometry x="0.0222" y="1" relative="1" as="geometry">
            <mxPoint as="offset" />
          </mxGeometry>
        </mxCell>
        <mxCell id="mrTYCghEalDdfHwuGX9a-51" style="edgeStyle=orthogonalEdgeStyle;rounded=0;orthogonalLoop=1;jettySize=auto;html=1;entryX=1;entryY=0.75;entryDx=0;entryDy=0;" edge="1" parent="1" source="mrTYCghEalDdfHwuGX9a-47" target="mrTYCghEalDdfHwuGX9a-37">
          <mxGeometry relative="1" as="geometry" />
        </mxCell>
        <mxCell id="mrTYCghEalDdfHwuGX9a-52" value="N" style="edgeLabel;html=1;align=center;verticalAlign=middle;resizable=0;points=[];" vertex="1" connectable="0" parent="mrTYCghEalDdfHwuGX9a-51">
          <mxGeometry x="0.1758" y="1" relative="1" as="geometry">
            <mxPoint as="offset" />
          </mxGeometry>
        </mxCell>
        <mxCell id="mrTYCghEalDdfHwuGX9a-47" value="translations found?" style="rhombus;whiteSpace=wrap;html=1;fillColor=#f8cecc;strokeColor=#b85450;" vertex="1" parent="1">
          <mxGeometry x="720" y="935" width="140" height="80" as="geometry" />
        </mxCell>
        <mxCell id="mrTYCghEalDdfHwuGX9a-48" value="Load translations" style="whiteSpace=wrap;html=1;" vertex="1" parent="1">
          <mxGeometry x="730" y="1109" width="120" height="60" as="geometry" />
        </mxCell>
        <mxCell id="mrTYCghEalDdfHwuGX9a-64" style="edgeStyle=orthogonalEdgeStyle;rounded=0;orthogonalLoop=1;jettySize=auto;html=1;entryX=1;entryY=0.25;entryDx=0;entryDy=0;exitX=0;exitY=0.75;exitDx=0;exitDy=0;jumpStyle=arc;" edge="1" parent="1" source="mrTYCghEalDdfHwuGX9a-60" target="mrTYCghEalDdfHwuGX9a-37">
          <mxGeometry relative="1" as="geometry" />
        </mxCell>
        <mxCell id="mrTYCghEalDdfHwuGX9a-60" value="Don&#39;t show language dropdown" style="whiteSpace=wrap;html=1;" vertex="1" parent="1">
          <mxGeometry x="780" y="455" width="120" height="60" as="geometry" />
        </mxCell>
        <mxCell id="mrTYCghEalDdfHwuGX9a-62" value="Should we push an&amp;nbsp;&lt;div&gt;info to download browser&amp;nbsp;&lt;/div&gt;&lt;div&gt;language pack?&lt;/div&gt;" style="ellipse;shape=cloud;whiteSpace=wrap;html=1;" vertex="1" parent="1">
          <mxGeometry x="790" y="330" width="220" height="120" as="geometry" />
        </mxCell>
      </root>
    </mxGraphModel>
  </diagram>
</mxfile>
